<?xml version="1.0" encoding="UTF-8"?>
<svg width="23px" height="27px" viewBox="0 0 23 27" version="1.1" xmlns="http://www.w3.org/2000/svg" xmlns:xlink="http://www.w3.org/1999/xlink">
    <!-- Generator: Sketch 43.2 (39069) - http://www.bohemiancoding.com/sketch -->
    <title>icon/经营理念</title>
    <desc>Created with Sketch.</desc>
    <defs></defs>
    <g id="Page-1" stroke="none" stroke-width="1" fill="none" fill-rule="evenodd">
        <g id="关于未名-集团简介" transform="translate(-710.000000, -567.000000)" stroke="#000000">
            <g id="Group-5" transform="translate(386.000000, 567.000000)">
                <g id="经营理念" transform="translate(312.000000, 0.000000)">
                    <g id="Group-3" transform="translate(12.000000, 0.000000)">
                        <path d="M12.6666667,1 C7.53333333,1 3.33333333,5.2 3.33333333,10.3333333 L1.07777778,15.4666667 C1,15.5444444 1,15.6222222 1,15.7777778 C1,16.2444444 1.31111111,16.5555556 1.77777778,16.5555556 L3.33333333,16.5555556 L8,25.8888889 L18.1111111,25.8888889 L18.1111111,17.8777778 C20.4444444,16.2444444 22,13.4444444 22,10.3333333 C22,5.2 17.8,1 12.6666667,1 Z M6.83333333,9.55555556 C7.45555556,9.55555556 8,10.1 8,10.7222222 C8,11.3444444 7.45555556,11.8888889 6.83333333,11.8888889 C6.21111111,11.8888889 5.66666667,11.3444444 5.66666667,10.7222222 C5.66666667,10.1 6.21111111,9.55555556 6.83333333,9.55555556 L6.83333333,9.55555556 Z M15.6067901,10.5367284 L15.6067901,10.5367284 C15.6067901,10.5367284 14.9790123,8.51388889 13.3049383,8.09537037 C12.3283951,7.81635802 9.95679012,8.65339506 9.95679012,8.65339506 L9.95679012,8.65339506 C9.74753086,8.72314815 9.46851852,8.79290123 9.25925926,8.79290123 C8.07345679,8.79290123 7.16666667,7.88611111 7.16666667,6.70030864 C7.16666667,6.21203704 7.37592593,5.72376543 7.65493827,5.375 C7.72469136,5.30524691 7.79444444,5.23549383 7.86419753,5.16574074 C9.05,3.8404321 10.7938272,3.07314815 12.7469136,3.07314815 C16.5833333,3.07314815 19.6524691,6.14228395 19.7222222,9.90895062 L19.7222222,9.9787037 C19.7222222,11.0947531 18.8154321,12.0712963 17.6296296,12.0712963 C16.6530864,12.0712963 15.8160494,11.4435185 15.6067901,10.5367284 L15.6067901,10.5367284 Z" id="Page-1"></path>
                    </g>
                </g>
            </g>
        </g>
    </g>
</svg>