<?xml version="1.0" encoding="UTF-8"?>
<svg width="28px" height="20px" viewBox="0 0 28 20" version="1.1" xmlns="http://www.w3.org/2000/svg" xmlns:xlink="http://www.w3.org/1999/xlink">
    <!-- Generator: Sketch 43.2 (39069) - http://www.bohemiancoding.com/sketch -->
    <title>icon/组织构架</title>
    <desc>Created with Sketch.</desc>
    <defs></defs>
    <g id="Page-1" stroke="none" stroke-width="1" fill="none" fill-rule="evenodd">
        <g id="关于未名-集团简介" transform="translate(-556.000000, -568.000000)" stroke="#000000">
            <g id="Group-5" transform="translate(386.000000, 567.000000)">
                <g id="组织构架" transform="translate(156.000000, 1.000000)">
                    <g id="Group-2" transform="translate(14.000000, 0.000000)">
                        <path d="M3.5,13 C2.11928813,13 1,11.8807119 1,10.5 C1,9.11928813 2.11928813,8 3.5,8 C4.88071187,8 6,9.11928813 6,10.5 C6,11.8807119 4.88071187,13 3.5,13 Z M23,5 C21.8954305,5 21,4.1045695 21,3 C21,1.8954305 21.8954305,1 23,1 C24.1045695,1 25,1.8954305 25,3 C25,4.1045695 24.1045695,5 23,5 Z M25.5,12 C24.6715729,12 24,11.3284271 24,10.5 C24,9.67157288 24.6715729,9 25.5,9 C26.3284271,9 27,9.67157288 27,10.5 C27,11.3284271 26.3284271,12 25.5,12 Z M20,19 C19.4477153,19 19,18.5522847 19,18 C19,17.4477153 19.4477153,17 20,17 C20.5522847,17 21,17.4477153 21,18 C21,18.5522847 20.5522847,19 20,19 Z M6.5,10.5 L23.5,10.5 L23.5,10 L6.5,10 M6,10.7554322 L9.41447761,6.00933847 C10.7073511,4.21225567 13.5383527,2.75543222 15.7575331,2.75543222 L21.0024629,2.75543222 M6,10 L9.41447761,14.7460938 C10.7073511,16.5431765 13.5468335,18 15.7604854,18 L19.0024629,18" id="Combined-Shape"></path>
                    </g>
                </g>
            </g>
        </g>
    </g>
</svg>