<?xml version="1.0" encoding="UTF-8"?>
<svg width="32px" height="33px" viewBox="0 0 32 33" version="1.1" xmlns="http://www.w3.org/2000/svg" xmlns:xlink="http://www.w3.org/1999/xlink">
    <!-- Generator: Sketch 44.1 (41455) - http://www.bohemiancoding.com/sketch -->
    <title>Group 3</title>
    <desc>Created with Sketch.</desc>
    <defs></defs>
    <g id="1920" stroke="none" stroke-width="1" fill="none" fill-rule="evenodd">
        <g id="未名文化-企业愿景-copy" transform="translate(-720.000000, -770.000000)" stroke="#000000" stroke-width="1.33333333">
            <g id="Group-2" transform="translate(494.666667, 769.333333)">
                <g id="Group-3" transform="translate(225.333333, 1.333333)">
                    <path d="M16,30.6666667 C7.89982367,30.6666667 1.33333333,24.1001763 1.33333333,16 C1.33333333,7.89982367 7.89982367,1.33333333 16,1.33333333 C24.1001763,1.33333333 30.6666667,7.89982367 30.6666667,16 C30.6666667,24.1001763 24.1001763,30.6666667 16,30.6666667 Z M16,22.6666667 C19.6818983,22.6666667 22.6666667,19.6818983 22.6666667,16 C22.6666667,12.3181017 19.6818983,9.33333333 16,9.33333333 C12.3181017,9.33333333 9.33333333,12.3181017 9.33333333,16 C9.33333333,19.6818983 12.3181017,22.6666667 16,22.6666667 Z" id="Combined-Shape"></path>
                </g>
            </g>
        </g>
    </g>
</svg>