<?xml version="1.0" encoding="UTF-8"?>
<svg width="23px" height="23px" viewBox="0 0 23 23" version="1.1" xmlns="http://www.w3.org/2000/svg" xmlns:xlink="http://www.w3.org/1999/xlink">
    <!-- Generator: Sketch 44.1 (41455) - http://www.bohemiancoding.com/sketch -->
    <title>Shape</title>
    <desc>Created with Sketch.</desc>
    <defs></defs>
    <g id="Symbols" stroke="none" stroke-width="1" fill="none" fill-rule="evenodd">
        <g id="icon/特色小镇" transform="translate(-1.000000, 0.000000)" stroke="#000000" fill-rule="nonzero">
            <g id="花1" transform="translate(2.000000, 1.000000)">
                <path d="M10.3017517,13.597381 C10.1230334,13.6240843 9.06447102,14.6521618 8.70703436,14.5052936 C8.40458796,14.3851287 8.88575269,13.3169962 8.62454898,12.9698532 C8.36334527,12.6227101 6.34245342,12.9832048 5.58633742,13.3303479 C4.84396898,13.6774909 3.62043582,14.6388101 3.19426135,15.9205691 C2.78183444,17.1756247 2.82307713,18.5374936 3.56544557,19.1516697 C4.307814,19.7658459 5.40761909,19.218428 5.40761909,19.218428 C5.40761909,19.218428 5.42136666,20.7405167 6.4249388,20.9541432 C7.41476338,21.1677697 9.38066498,20.6470552 10.356742,19.1383181 C11.332819,17.6429326 11.0853629,15.2663379 10.9066445,14.4919419 C10.7279262,13.7041942 10.4804701,13.557326 10.3017517,13.597381 Z M19.0177071,13.1434247 C17.7529312,12.1019955 13.7936329,11.2741929 13.2024877,11.6747426 C12.5975949,12.0752922 13.5599243,13.0499631 13.2574779,13.210183 C12.9687791,13.3837545 12.1989155,12.5559518 11.9102167,12.6627651 C11.6215179,12.78293 11.2090909,15.0794148 11.7727411,16.4946903 C12.3363912,17.9233174 14.4397684,20.0862856 15.869515,19.4587578 C17.2992616,18.83123 17.1067957,17.7096909 17.1067957,17.7096909 C17.1067957,17.7096909 19.0452022,18.1369439 19.7600755,16.9619982 C20.4886964,15.8137558 20.0075317,13.9712273 19.0177071,13.1434247 L19.0177071,13.1434247 Z M12.2676533,8.8975982 C12.5151095,9.08452138 13.4774389,8.67062005 13.7111475,8.91094985 C13.9448561,9.15127965 12.4601192,9.88562071 12.9137888,10.4330386 C13.3674584,10.9671048 17.0243104,11.3275995 18.577785,10.7401267 C19.966289,10.2194121 21.2173173,8.8975982 20.9698611,7.29539952 C20.7499001,5.96023396 18.7839985,5.61309091 18.7839985,5.61309091 C18.7839985,5.61309091 19.2789108,4.15776045 18.1241154,3.59699091 C16.089476,2.60896839 14.6047392,4.23787038 13.6561573,5.71990415 C12.8175559,7.02836641 12.0201972,8.71067502 12.2676533,8.8975982 L12.2676533,8.8975982 Z M10.7829165,0.0454505091 C9.38066498,-0.288340882 8.30835502,1.52748428 8.30835502,1.52748428 C8.30835502,1.52748428 6.90610353,1.28715448 5.98501677,2.12830879 C4.85771655,3.14303462 5.09142513,4.62506839 6.19123022,6.01364058 C7.16730724,7.2419929 8.73452949,8.25671873 9.00948076,8.12320217 C9.28443204,7.98968561 9.25693691,6.98831144 9.57313087,6.89484985 C9.9030724,6.78803661 10.0680432,8.33682866 10.7691689,8.16325714 C11.4702947,7.98968561 13.2437304,4.98556309 13.2574779,3.42341939 C13.2987206,2.0348472 12.4738668,0.446000178 10.7829165,0.0454505091 L10.7829165,0.0454505091 Z M4.41779451,13.1167214 C5.98501677,12.6761167 7.9371708,12.1153472 7.95091836,11.581281 C7.96466593,11.0739181 6.30121073,10.7801816 6.45243393,10.1660055 C6.53491931,9.8589174 8.14338425,10.0992472 8.25336476,9.43166442 C8.34959771,8.92430151 7.11231698,7.50902601 5.5175996,6.74798164 C4.18408593,6.10710217 2.01197088,5.74660747 1.06338899,7.09512469 C0.266030297,8.23001541 1.07713655,9.47171939 1.07713655,9.47171939 C1.07713655,9.47171939 -0.311367376,10.5265002 0.073564406,11.6747426 C0.527234006,13.0633148 2.63061124,13.6107326 4.41779451,13.1167214 Z" id="Shape"></path>
            </g>
        </g>
    </g>
</svg>