<?xml version="1.0" encoding="UTF-8"?>
<svg width="24px" height="24px" viewBox="0 0 24 24" version="1.1" xmlns="http://www.w3.org/2000/svg" xmlns:xlink="http://www.w3.org/1999/xlink">
    <!-- Generator: Sketch 44.1 (41455) - http://www.bohemiancoding.com/sketch -->
    <title>Shape</title>
    <desc>Created with Sketch.</desc>
    <defs></defs>
    <g id="Symbols" stroke="none" stroke-width="1" fill="none" fill-rule="evenodd">
        <g id="icon/科技农业" transform="translate(-1.000000, -1.000000)" stroke="#000000" stroke-width="0.5" fill-rule="nonzero">
            <g id="农业" transform="translate(2.000000, 2.000000)">
                <path d="M19.170315,0.0120784314 C19.170315,0.0120784314 16.5095276,2.05505882 16.1769291,3.32501961 C16.0106299,4.20847059 16.4540945,4.87105882 17.3410236,5.09192157 C17.7844882,5.20235294 18.9485827,5.09192157 19.170315,3.49066667 C19.4474803,1.88941176 19.170315,0.0120784314 19.170315,0.0120784314 L19.170315,0.0120784314 Z M16.2323622,6.80360784 C16.2323622,6.80360784 16.1214961,5.47843137 18.5605512,5.42321569 C20.777874,5.31278431 21.6093701,5.14713725 21.9974016,4.59498039 C21.8865354,4.9814902 20.5561417,6.85882353 18.7268504,7.68705882 C17.7290551,8.07356863 16.2877953,8.07356863 16.2323622,6.80360784 Z M14.5693701,9.3987451 C14.5693701,9.3987451 14.9574016,8.40486275 16.842126,8.40486275 C18.6159843,8.46007843 20.2235433,8.07356863 20.5007087,7.74227451 C20.4452756,8.12878431 18.6159843,10.3926275 17.5627559,10.9447843 C16.2877953,11.6625882 15.5117323,11.6625882 15.0128346,11.2208627 C14.7911024,10.9447843 14.2367717,10.4478431 14.5693701,9.3987451 L14.5693701,9.3987451 Z M12.961811,12.8221176 C12.961811,12.8221176 13.2389764,11.7178039 14.7911024,11.7730196 C16.2323622,11.7178039 17.8953543,11.6625882 18.8931496,11 C18.3388189,12.8221176 16.2877953,14.2025098 15.2345669,14.5338039 C14.0704724,14.9755294 13.2944094,14.9203137 12.961811,14.3681569 C12.6846457,13.7607843 12.961811,12.8221176 12.961811,12.8221176 L12.961811,12.8221176 Z M11.7422835,15.748549 C12.0194488,15.5276863 12.5737795,15.3068235 13.3498425,15.3068235 C14.7356693,15.3068235 16.3986614,14.8098824 16.842126,14.6442353 C17.2855906,14.0920784 15.8443307,16.3559216 14.9574016,16.9632941 C14.1259055,17.681098 12.906378,18.2332549 11.9085827,17.7915294 C10.9107874,17.2945882 11.0770866,16.1902745 11.7422835,15.748549 L11.7422835,15.748549 Z M14.0150394,0.785098039 C14.0150394,0.785098039 14.6248031,3.60109804 15.7334646,4.31890196 C16.842126,5.03670588 16.066063,6.30666667 15.7888976,6.52752941 C15.4562992,6.69317647 13.8487402,7.19011765 13.2389764,5.7545098 C12.5737795,4.31890196 13.0726772,1.50290196 14.0150394,0.785098039 L14.0150394,0.785098039 Z M12.2966142,4.59498039 C12.2966142,4.59498039 12.6292126,6.63796078 13.9596063,8.62572549 C14.3476378,9.45396078 13.2389764,10.0061176 13.1835433,10.0061176 C12.185748,10.2821961 11.1325197,10.0061176 11.0216535,8.51529412 C10.9662205,7.02447059 11.0770866,5.86494118 12.2966142,4.59498039 L12.2966142,4.59498039 Z M10.3564567,8.01835294 C10.3564567,8.01835294 10.633622,9.12266667 11.2988189,10.0613333 C11.7977165,10.7239216 12.5183465,11.4969412 12.6292126,11.7730196 C12.906378,12.4356078 12.5737795,12.9877647 12.130315,13.1534118 C11.5759843,13.3742745 10.5227559,13.5399216 10.1347244,12.932549 C9.69125984,12.3251765 8.97062992,10.1717647 10.3564567,8.01835294 L10.3564567,8.01835294 Z M8.47173228,11.2208627 C8.47173228,11.2208627 9.74669291,13.2638431 10.7444882,14.4785882 C11.5759843,15.8037647 10.9662205,16.5767843 10.1347244,16.6872157 C9.1923622,16.7424314 8.58259843,16.9080784 8.25,15.6381176 C8.19456693,15.2516078 7.69566929,14.0920784 8.47173228,11.2208627 L8.47173228,11.2208627 Z M9.41409449,17.1289412 C9.41409449,17.1289412 10.9107874,17.9019608 11.1879528,17.8467451 C11.4651181,17.7915294 8.41629921,21.9879216 8.41629921,21.9879216 L7.47393701,21.8774902 C7.47393701,21.8774902 9.41409449,18.398902 9.41409449,17.1289412 L9.41409449,17.1289412 Z M2.81755906,4.9814902 C2.81755906,4.9814902 2.20779528,6.41709804 2.48496063,8.01835294 C2.65125984,8.90180392 3.8707874,8.68094118 4.03708661,8.5705098 C4.20338583,8.46007843 4.97944882,7.96313725 4.36968504,6.9692549 C3.81535433,5.92015686 2.81755906,4.9814902 2.81755906,4.9814902 L2.81755906,4.9814902 Z M4.09251969,9.95090196 C4.09251969,9.95090196 3.59362205,9.23309804 4.81314961,8.34964706 C5.86637795,7.57662745 6.08811024,7.24533333 6.42070866,6.74839216 C6.47614173,7.35576471 6.47614173,8.95701961 5.92181102,9.67482353 C5.42291339,10.3374118 4.48055118,10.4478431 4.09251969,9.95090196 L4.09251969,9.95090196 Z M4.31425197,11.9386667 C4.31425197,11.9386667 4.31425197,11.1656471 5.14574803,10.7239216 C6.19897638,10.116549 7.03047244,9.28831373 6.97503937,9.01223529 C7.03047244,9.3987451 7.14133858,11.1104314 6.47614173,12.2147451 C6.08811024,12.932549 5.64464567,13.0429804 5.31204724,13.0429804 C4.48055118,12.9877647 4.36968504,12.3251765 4.31425197,11.9386667 L4.31425197,11.9386667 Z M4.86858268,14.5890196 C4.86858268,14.5890196 4.81314961,13.9264314 5.47834646,13.3742745 C6.30984252,12.8221176 7.08590551,12.3251765 7.41850394,11.5521569 C7.64023622,11.883451 7.69566929,13.8712157 6.97503937,14.9755294 C6.5315748,15.6381176 6.30984252,15.6381176 5.70007874,15.4172549 C4.86858268,15.1963922 4.86858268,14.5890196 4.86858268,14.5890196 Z M5.47834646,16.7976471 C5.53377953,16.5767843 5.86637795,16.1902745 6.30984252,15.9141961 C6.75330709,15.6381176 7.64023622,14.9203137 7.91740157,14.3681569 C8.02826772,14.865098 7.97283465,15.582902 7.80653543,16.3559216 C7.64023622,17.0737255 7.3076378,17.9019608 6.47614173,17.9571765 C5.75551181,18.0123922 5.36748031,17.2945882 5.47834646,16.7976471 L5.47834646,16.7976471 Z M0.0459055118,7.30054902 C0.0459055118,7.30054902 1.65346457,8.73615686 2.65125984,8.73615686 C3.64905512,8.79137255 3.70448819,9.56439216 3.53818898,9.95090196 C3.42732283,10.1717647 2.81755906,11.0552157 1.81976378,10.4478431 C0.821968504,9.84047059 -0.175826772,8.07356863 0.0459055118,7.30054902 Z M0.766535433,10.116549 C0.766535433,10.116549 1.87519685,11.4417255 3.53818898,11.6625882 C4.36968504,11.7178039 4.20338583,12.6564706 3.92622047,12.932549 C3.48275591,13.4294902 2.65125984,13.3190588 2.09692913,12.932549 C1.15456693,12.1043137 0.821968504,11.4969412 0.766535433,10.116549 L0.766535433,10.116549 Z M1.21,12.8221176 C1.21,12.8221176 2.09692913,13.6503529 4.14795276,14.1472941 C4.92401575,14.3681569 4.75771654,14.9755294 4.53598425,15.2516078 C4.31425197,15.582902 3.92622047,15.9141961 3.31645669,15.748549 C2.42952756,15.5276863 1.37629921,14.5338039 1.21,12.8221176 L1.21,12.8221176 Z M1.54259843,15.3068235 C1.54259843,15.3068235 2.70669291,15.8589804 4.59141732,16.4663529 C5.64464567,16.9080784 5.47834646,17.681098 5.03488189,18.0123922 C4.59141732,18.4541176 4.03708661,18.564549 3.31645669,17.9571765 C2.5403937,17.1289412 1.98606299,16.2454902 1.54259843,15.3068235 L1.54259843,15.3068235 Z M4.75771654,18.398902 C4.75771654,18.398902 5.97724409,18.3436863 6.08811024,18.1780392 C6.19897638,18.0676078 6.36527559,21.5461961 6.36527559,21.5461961 L5.81094488,21.8222745 C5.81094488,21.8774902 5.36748031,19.1719216 4.75771654,18.398902 L4.75771654,18.398902 Z" id="Shape"></path>
            </g>
        </g>
    </g>
</svg>