<?xml version="1.0" encoding="UTF-8"?>
<svg width="30px" height="33px" viewBox="0 0 30 33" version="1.1" xmlns="http://www.w3.org/2000/svg" xmlns:xlink="http://www.w3.org/1999/xlink">
    <!-- Generator: Sketch 44.1 (41455) - http://www.bohemiancoding.com/sketch -->
    <title>未名学院</title>
    <desc>Created with Sketch.</desc>
    <defs></defs>
    <g id="1920" stroke="none" stroke-width="1" fill="none" fill-rule="evenodd">
        <g id="未名文化-企业愿景-copy" transform="translate(-1142.000000, -769.000000)" stroke="#000000" stroke-width="1.33333333">
            <g id="Group-2" transform="translate(494.666667, 768.333333)">
                <g id="Group-5" transform="translate(647.333333, 0.333333)">
                    <path d="M15.3333333,2 L2,7.86666667 L2,10.8 L28.6666667,10.8 L28.6666667,7.86666667 L15.3333333,2 L15.3333333,2 Z M4.96296296,13.7333333 L4.96296296,25.4666667 L2,28.4 L2,31.3333333 L28.6666667,31.3333333 L28.6666667,28.4 L25.7037037,25.4666667 L25.7037037,13.7333333 L4.96296296,13.7333333 L4.96296296,13.7333333 Z M7.92592593,16.6666667 L10.8888889,16.6666667 L10.8888889,25.4666667 L7.92592593,25.4666667 L7.92592593,16.6666667 L7.92592593,16.6666667 Z M13.8518519,16.6666667 L16.8148148,16.6666667 L16.8148148,25.4666667 L13.8518519,25.4666667 L13.8518519,16.6666667 L13.8518519,16.6666667 Z M19.7777778,16.6666667 L22.7407407,16.6666667 L22.7407407,25.4666667 L19.7777778,25.4666667 L19.7777778,16.6666667 L19.7777778,16.6666667 Z" id="Page-1"></path>
                </g>
            </g>
        </g>
    </g>
</svg>