<?xml version="1.0" encoding="UTF-8"?>
<svg width="30px" height="30px" viewBox="0 0 30 30" version="1.1" xmlns="http://www.w3.org/2000/svg" xmlns:xlink="http://www.w3.org/1999/xlink">
    <!-- Generator: Sketch 44.1 (41455) - http://www.bohemiancoding.com/sketch -->
    <title>Group 6</title>
    <desc>Created with Sketch.</desc>
    <defs></defs>
    <g id="1920" stroke="none" stroke-width="1" fill="none" fill-rule="evenodd">
        <g id="未名产业-copy" transform="translate(-733.000000, -769.000000)" fill="#000000">
            <g id="Group-7" transform="translate(714.666667, 769.333333)">
                <g id="Group-6" transform="translate(18.666667, 0.000000)">
                    <path d="M1.99007701,0.0861387586 C2.20625381,0.0299228973 2.43336332,0 2.66787333,0 L3.65567832,0 L3.65567832,10.4228898 C3.65567832,11.0624418 4.00672085,11.285496 4.56640185,11.285496 L13.8337686,11.285496 L13.8337686,8.04896965 L9.44242535,8.04896965 C7.86253919,8.04896965 7.444483,7.42889843 7.444483,6.08258607 L7.444483,5.55111512e-17 L9.11008431,0 L9.11008431,5.52076218 C9.11008431,6.16011932 9.46112684,6.38336834 10.0208078,6.38336834 L13.8337686,6.38336834 L13.8337686,-1.11022302e-16 L15.4993699,0 L15.4993699,6.38336834 L19.3123307,6.38336834 C19.8720117,6.38336834 20.2230542,6.16089855 20.2230542,5.52076218 L20.2230542,-1.66533454e-16 L21.8888503,0 L21.8888503,6.08258607 C21.8888503,7.42792439 21.4705993,8.04896965 19.890908,8.04896965 L15.4993699,8.04896965 L15.4993699,11.285496 L24.7669315,11.285496 C25.3266125,11.285496 25.677655,11.063221 25.677655,10.4228898 L25.677655,0 L26.66546,0 C26.8996664,0 27.1268241,0.0299716476 27.3432563,0.0863372531 L27.3432563,10.9849085 C27.3432563,12.3302469 26.9252001,12.9512921 25.345314,12.9512921 L15.4993699,12.9512921 L15.4993699,16.1878185 L25.345314,16.1878185 C26.9259794,16.1878185 27.3432563,16.8084741 27.3432563,18.1542021 L27.3432563,20.8361124 C27.3432563,22.1818403 26.9259794,22.802496 25.345314,22.802496 L21.9079414,22.802496 C21.3482604,22.802496 20.9972179,23.0249658 20.9972179,23.6652969 L20.9972179,25.2233647 C20.9972179,25.8636959 21.3482604,26.0859708 21.9079414,26.0859708 L29.3333333,26.0859708 L29.3333333,26.66546 C29.3333333,27.0523171 29.2515595,27.4199426 29.1041354,27.751767 L21.3295589,27.751767 C19.749478,27.751767 19.3316166,27.1313061 19.3316166,25.7853834 L19.3316166,23.1032782 C19.3316166,21.7571607 19.7488936,21.1368947 21.3295589,21.1368947 L24.7669315,21.1368947 C25.3266125,21.1368947 25.677655,20.9146197 25.677655,20.2742885 L25.677655,18.7160259 C25.677655,18.0758896 25.3256385,17.8534198 24.7669315,17.8534198 L15.4993699,17.8534198 L15.4993699,29.3333333 L13.8337686,29.3333333 L13.8337686,17.8534198 L4.56640185,17.8534198 C4.00769488,17.8534198 3.65567832,18.0762792 3.65567832,18.7160259 L3.65567832,20.2742885 C3.65567832,20.9140352 4.00672085,21.1368947 4.56640185,21.1368947 L8.00377439,21.1368947 C9.58443978,21.1368947 10.0017167,21.7571607 10.0017167,23.1032782 L10.0017167,25.7853834 C10.0017167,27.1313061 9.58366055,27.751767 8.00377439,27.751767 L0.228884772,27.751767 C0.0817598191,27.4205209 0,27.0531008 0,26.66546 L0,26.0859708 L7.4253919,26.0859708 C7.9850729,26.0859708 8.33611542,25.8636959 8.33611542,25.2233647 L8.33611542,23.6652969 C8.33611542,23.0249658 7.98487809,22.802496 7.4253919,22.802496 L3.98782455,22.802496 C2.40735397,22.802496 1.99007701,22.1824247 1.99007701,20.8361124 L1.99007701,18.1542021 C1.99007701,16.8078897 2.40735397,16.1878185 3.98782455,16.1878185 L13.8337686,16.1878185 L13.8337686,12.9512921 L3.98782455,12.9512921 C2.4081332,12.9512921 1.99007701,12.3310261 1.99007701,10.9849085 L1.99007701,0.0861387586 Z" id="Combined-Shape"></path>
                </g>
            </g>
        </g>
    </g>
</svg>