<?xml version="1.0" encoding="UTF-8"?>
<svg width="32px" height="32px" viewBox="0 0 32 32" version="1.1" xmlns="http://www.w3.org/2000/svg" xmlns:xlink="http://www.w3.org/1999/xlink">
    <!-- Generator: Sketch 44.1 (41455) - http://www.bohemiancoding.com/sketch -->
    <title>Group 5</title>
    <desc>Created with Sketch.</desc>
    <defs></defs>
    <g id="1920" stroke="none" stroke-width="1" fill="none" fill-rule="evenodd">
        <g id="未名新闻-企业动态-copy" transform="translate(-944.000000, -768.000000)" stroke="#000000" stroke-width="1.33333333">
            <g id="Group-5" transform="translate(944.000000, 768.000000)">
                <path d="M28.2791956,30.6666667 L5.20030865,30.6666667 M24.9018555,11.2529297 C22.7182617,11.2529297 30.6666667,10.6666667 30.6666667,14 L30.6666667,28.1666667 C30.6666667,28.1666667 30.0133729,30.6666667 27.6259018,30.6666667 M27.011911,30.6666667 L6.23681641,30.6666667 L3.66774949,30.6666667 C3.66774949,30.6666667 1.33333333,30.6666667 1.33333333,27.4074074 L1.33333333,4.59259259 C1.33333333,2.79266667 2.72697978,1.33333333 4.4458882,1.33333333 L21.56494,1.33333333 C23.2838484,1.33333333 24.6774949,2.79266667 24.6774949,4.59259259 L24.6774949,10.699707 L24.6774949,28.2222222 C24.6774949,30.6666667 27.011911,30.6666667 27.011911,30.6666667 Z M7.33333333,8 L19.3333333,8 L19.3333333,6.66666667 L7.33333333,6.66666667 L7.33333333,8 Z M7.33333333,13.3333333 L19.3333333,13.3333333 L19.3333333,12 L7.33333333,12 L7.33333333,13.3333333 Z M7.33333333,18.6666667 L19.3333333,18.6666667 L19.3333333,17.3333333 L7.33333333,17.3333333 L7.33333333,18.6666667 Z M7.33333333,24 L19.3333333,24 L19.3333333,22.6666667 L7.33333333,22.6666667 L7.33333333,24 Z" id="Combined-Shape"></path>
            </g>
        </g>
    </g>
</svg>