<?xml version="1.0" encoding="UTF-8"?>
<svg width="27px" height="21px" viewBox="0 0 27 21" version="1.1" xmlns="http://www.w3.org/2000/svg" xmlns:xlink="http://www.w3.org/1999/xlink">
    <!-- Generator: Sketch 44.1 (41455) - http://www.bohemiancoding.com/sketch -->
    <title>Combined Shape</title>
    <desc>Created with Sketch.</desc>
    <defs></defs>
    <g id="Symbols" stroke="none" stroke-width="1" fill="none" fill-rule="evenodd">
        <g id="icon-企业荣誉" transform="translate(-1.000000, 0.000000)" fill-rule="nonzero" fill="#000000">
            <path d="M24,17 L24,1 L2,1 L2,17 M1,18 L1,0 L25,0 L25,9.54736328 L25,18 M20.5,19.5 C17.1862915,19.5 14.5,16.8137085 14.5,13.5 C14.5,10.1862915 17.1862915,7.5 20.5,7.5 C23.8137085,7.5 26.5,10.1862915 26.5,13.5 C26.5,16.8137085 23.8137085,19.5 20.5,19.5 L20.5,19.5 M20.5,18.5 C23.2614237,18.5 25.5,16.2614237 25.5,13.5 C25.5,10.7385763 23.2614237,8.5 20.5,8.5 C17.7385763,8.5 15.5,10.7385763 15.5,13.5 C15.5,16.2614237 17.7385763,18.5 20.5,18.5 Z M17.6278992,12.2648307 C17.6669293,12.2348113 17.7471367,12.1770893 17.8619992,12.1009569 C18.0564892,11.9720462 18.2730539,11.8427971 18.5048053,11.7224583 C19.0963158,11.4153116 19.6786392,11.2217283 20.2000267,11.192685 C20.3391836,11.1849334 20.4722085,11.1891496 20.5986587,11.205651 C20.9461636,11.2509996 21.2294772,11.3117772 21.5270933,11.3971712 C21.6129019,11.4217919 22.0510694,11.5584796 22.1779673,11.5925227 C22.7096607,11.7351612 23.1819444,11.7483664 23.894454,11.6098686 L23.703645,10.6282414 C23.1380489,10.7381821 22.8195298,10.7292763 22.4370773,10.6266749 C22.333934,10.5990045 21.9072384,10.4658955 21.8028917,10.4359557 C21.4592516,10.3373561 21.1274671,10.2661804 20.7280592,10.2140586 C20.5383992,10.1893084 20.3436316,10.1831354 20.1444091,10.1942329 C19.4596889,10.2323744 18.750335,10.4681867 18.0439708,10.8349722 C17.7788003,10.9726641 17.5321369,11.1198766 17.3095241,11.2674274 C17.1741249,11.3571719 17.0750595,11.4284653 17.0182374,11.472169 L17.6278992,12.2648307 Z M17.4269486,14.2648307 C17.4659788,14.2348113 17.5461862,14.1770893 17.6610486,14.1009569 C17.8555387,13.9720462 18.0721034,13.8427971 18.3038548,13.7224583 C18.8953652,13.4153116 19.4776887,13.2217283 19.9990762,13.192685 C20.138233,13.1849334 20.271258,13.1891496 20.3977082,13.205651 C20.745213,13.2509996 21.0285267,13.3117772 21.3261428,13.3971712 C21.4119514,13.4217919 21.8501189,13.5584796 21.9770167,13.5925227 C22.5087102,13.7351612 22.9809938,13.7483664 23.6935034,13.6098686 L23.5026944,12.6282414 C22.9370984,12.7381821 22.6185793,12.7292763 22.2361267,12.6266749 C22.1329835,12.5990045 21.7062879,12.4658955 21.6019412,12.4359557 C21.258301,12.3373561 20.9265166,12.2661804 20.5271086,12.2140586 C20.3374487,12.1893084 20.1426811,12.1831354 19.9434586,12.1942329 C19.2587383,12.2323744 18.5493845,12.4681867 17.8430203,12.8349722 C17.5778498,12.9726641 17.3311863,13.1198766 17.1085736,13.2674274 C16.9731744,13.3571719 16.874109,13.4284653 16.8172869,13.472169 L17.4269486,14.2648307 Z M17.4269486,16.2648307 C17.4659788,16.2348113 17.5461862,16.1770893 17.6610486,16.1009569 C17.8555387,15.9720462 18.0721034,15.8427971 18.3038548,15.7224583 C18.8953652,15.4153116 19.4776887,15.2217283 19.9990762,15.192685 C20.138233,15.1849334 20.271258,15.1891496 20.3977082,15.205651 C20.745213,15.2509996 21.0285267,15.3117772 21.3261428,15.3971712 C21.4119514,15.4217919 21.8501189,15.5584796 21.9770167,15.5925227 C22.5087102,15.7351612 22.9809938,15.7483664 23.6935034,15.6098686 L23.5026944,14.6282414 C22.9370984,14.7381821 22.6185793,14.7292763 22.2361267,14.6266749 C22.1329835,14.5990045 21.7062879,14.4658955 21.6019412,14.4359557 C21.258301,14.3373561 20.9265166,14.2661804 20.5271086,14.2140586 C20.3374487,14.1893084 20.1426811,14.1831354 19.9434586,14.1942329 C19.2587383,14.2323744 18.5493845,14.4681867 17.8430203,14.8349722 C17.5778498,14.9726641 17.3311863,15.1198766 17.1085736,15.2674274 C16.9731744,15.3571719 16.874109,15.4284653 16.8172869,15.472169 L17.4269486,16.2648307 Z M5,5 L18,5 L18,4 L5,4 L5,5 Z M5,8 L15,8 L15,7 L5,7 L5,8 Z M5,11 L13.0710678,11 L13.0710678,10 L5,10 L5,11 Z M5,14 L13.0710678,14 L13.0710678,13 L5,13 L5,14 Z" id="Combined-Shape"></path>
        </g>
    </g>
</svg>