<?xml version="1.0" encoding="UTF-8"?>
<svg width="23px" height="23px" viewBox="0 0 23 23" version="1.1" xmlns="http://www.w3.org/2000/svg" xmlns:xlink="http://www.w3.org/1999/xlink">
    <!-- Generator: Sketch 43.2 (39069) - http://www.bohemiancoding.com/sketch -->
    <title>大事记</title>
    <desc>Created with Sketch.</desc>
    <defs></defs>
    <g id="Page-1" stroke="none" stroke-width="1" fill="none" fill-rule="evenodd">
        <g id="关于未名-集团简介" transform="translate(-864.000000, -568.000000)" stroke="#000000">
            <g id="Group-5" transform="translate(386.000000, 567.000000)">
                <g id="大事记" transform="translate(468.000000, 1.000000)">
                    <g id="Group-6" transform="translate(10.000000, 0.000000)">
                        <path d="M19.5474578,1 C16.0723014,1 11.4092611,3.38419616 8.2778763,7.48319827 L5.68200371,7.48319827 C3.80625237,7.48319827 2.73117602,8.88324494 1.99095686,10.3638453 L1,12.345597 L3.3394621,12.345597 L5.68200371,12.345597 L8.11320306,14.7767963 L10.5444024,17.2079957 L10.5444024,19.5505373 L10.5444024,21.8899994 L12.526154,20.8992062 C14.0067545,20.1588234 15.4068011,19.083747 15.4068011,17.2079957 L15.4068011,14.6121231 C19.5058032,11.4807383 21.8899994,6.81769797 21.8899994,3.34254162 L21.8899994,1 L19.5474578,1 L19.5474578,1 Z M15.4068011,5.8623987 C16.3019687,5.8623987 17.0276007,6.58803067 17.0276007,7.48319827 L17.0276007,7.48319827 C17.0276007,8.37836587 16.3019687,9.10399784 15.4068011,9.10399784 L15.4068011,9.10399784 C14.5116335,9.10399784 13.7860016,8.37836587 13.7860016,7.48319827 L13.7860016,7.48319827 C13.7860016,6.58803067 14.5116335,5.8623987 15.4068011,5.8623987 L15.4068011,5.8623987 L15.4068011,5.8623987 Z M4.87160393,15.5871961 L4.06120414,16.3975959 C2.8906627,17.5681373 2.44040458,20.4495948 2.44040458,20.4495948 C2.44040458,20.4495948 5.19252224,20.1286765 6.4924035,18.8287952 L7.30280328,18.0183955 L4.87160393,15.5871961 L4.87160393,15.5871961 Z" id="Page-1"></path>
                    </g>
                </g>
            </g>
        </g>
    </g>
</svg>