<?xml version="1.0" encoding="UTF-8"?>
<svg width="32px" height="34px" viewBox="0 0 32 34" version="1.1" xmlns="http://www.w3.org/2000/svg" xmlns:xlink="http://www.w3.org/1999/xlink">
    <!-- Generator: Sketch 44.1 (41455) - http://www.bohemiancoding.com/sketch -->
    <title>Group 2</title>
    <desc>Created with Sketch.</desc>
    <defs></defs>
    <g id="1920" stroke="none" stroke-width="1" fill="none" fill-rule="evenodd">
        <g id="加入我们-人才招聘-copy" transform="translate(-1048.000000, -825.000000)" fill="#000000">
            <g id="Group-2" transform="translate(1048.000000, 825.333333)">
                <path d="M8.1875,1.15625 C8.77083625,1.96875406 9.41145484,2.89582813 10.109375,3.9375 C10.8072952,4.97917187 11.5624959,6.13541031 12.375,7.40625 C12.5833344,7.739585 12.6718752,8.11458125 12.640625,8.53125 C12.6093748,8.94791875 12.4583347,9.39583094 12.1875,9.875 C12.0833328,10.0833344 11.9062512,10.4166644 11.65625,10.875 C11.4062487,11.3333356 11.0833353,11.9270797 10.6875,12.65625 C11.1250022,13.2812531 11.6822883,13.9791628 12.359375,14.75 C13.0364617,15.5208372 13.8229122,16.3541622 14.71875,17.25 C15.6354212,18.1666713 16.4739545,18.9635383 17.234375,19.640625 C17.9947955,20.3177117 18.6770803,20.8749978 19.28125,21.3125 C19.9895869,20.8958313 20.5781227,20.557293 21.046875,20.296875 C21.5156273,20.036457 21.8541656,19.8541672 22.0625,19.75 C22.3125012,19.6041659 22.567707,19.494792 22.828125,19.421875 C23.088543,19.348958 23.3333322,19.3125 23.5625,19.3125 C23.7500009,19.3125 23.9218742,19.3333331 24.078125,19.375 C24.2343758,19.4166669 24.3854159,19.4791662 24.53125,19.5625 C25.4687547,20.1250028 26.4583281,20.7552048 27.5,21.453125 C28.5416719,22.1510452 29.6562441,22.9166625 30.84375,23.75 C31.0520844,23.8958341 31.2187494,24.0833322 31.34375,24.3125 C31.4687506,24.5416678 31.5520831,24.7916653 31.59375,25.0625 C31.6145834,25.3541681 31.5833337,25.6510402 31.5,25.953125 C31.4166662,26.2552098 31.2708344,26.5624984 31.0625,26.875 C30.9791662,27.0208341 30.8541675,27.1979156 30.6875,27.40625 C30.5208325,27.6145844 30.3229178,27.8541653 30.09375,28.125 C29.8854156,28.3958347 29.614585,28.7031233 29.28125,29.046875 C28.947915,29.3906267 28.5520856,29.7708313 28.09375,30.1875 C27.6562478,30.6041687 27.2552102,30.9166656 26.890625,31.125 C26.5260398,31.3333344 26.2083347,31.4375 25.9375,31.4375 L25.875,31.4375 C24.7916613,31.3958331 23.6562559,31.1614605 22.46875,30.734375 C21.2812441,30.3072895 20.0312566,29.6979206 18.71875,28.90625 C17.4062434,28.1145794 16.0312572,27.1250059 14.59375,25.9375 C13.1562428,24.7499941 11.6562578,23.3854244 10.09375,21.84375 C8.53124219,20.2812422 7.16146422,18.7812572 5.984375,17.34375 C4.80728578,15.9062428 3.81771234,14.5312566 3.015625,13.21875 C2.21353766,11.9062434 1.60416875,10.6510477 1.1875,9.453125 C0.77083125,8.25520234 0.541666875,7.12500531 0.5,6.0625 C0.5,5.77083187 0.604165625,5.44271016 0.8125,5.078125 C1.02083437,4.71353984 1.33333125,4.30208563 1.75,3.84375 C2.16666875,3.38541437 2.541665,2.99479328 2.875,2.671875 C3.208335,2.34895672 3.51041531,2.08333437 3.78125,1.875 C4.03125125,1.68749906 4.27083219,1.5104175 4.5,1.34375 C4.72916781,1.1770825 4.9270825,1.03125062 5.09375,0.90625 C5.32291781,0.7395825 5.56249875,0.619792031 5.8125,0.546875 C6.06250125,0.473957969 6.33333187,0.4375 6.625,0.4375 C6.958335,0.4375 7.25520703,0.494791094 7.515625,0.609375 C7.77604297,0.723958906 7.99999906,0.90624875 8.1875,1.15625 Z M6.1875,2.4375 C5.77083125,2.72916812 5.36458531,3.04687328 4.96875,3.390625 C4.57291469,3.73437672 4.18750187,4.09374813 3.8125,4.46875 C3.43749813,4.84375188 3.14062609,5.16666531 2.921875,5.4375 C2.70312391,5.70833469 2.56250031,5.93749906 2.5,6.125 C2.54166687,7.06250469 2.76041469,8.06249469 3.15625,9.125 C3.55208531,10.1875053 4.12499625,11.3177023 4.875,12.515625 C5.62500375,13.7135477 6.55207781,14.9739517 7.65625,16.296875 C8.76042219,17.6197983 10.0416594,19.0104094 11.5,20.46875 C12.9583406,21.9270906 14.3489517,23.2083278 15.671875,24.3125 C16.9947983,25.4166722 18.2552023,26.3437463 19.453125,27.09375 C20.6510477,27.8437538 21.786453,28.4166647 22.859375,28.8125 C23.932297,29.2083353 24.9374953,29.4374997 25.875,29.5 C26.0208341,29.4374997 26.2291653,29.2916678 26.5,29.0625 C26.7708347,28.8333322 27.0937481,28.5312519 27.46875,28.15625 C27.8437519,27.7812481 28.197915,27.390627 28.53125,26.984375 C28.864585,26.578123 29.1874984,26.1666687 29.5,25.75 C29.5625003,25.6666662 29.6041666,25.588542 29.625,25.515625 C29.6458334,25.442708 29.6458334,25.3750003 29.625,25.3125 C28.4166606,24.4583291 27.3072967,23.69792 26.296875,23.03125 C25.2864533,22.36458 24.3750041,21.7708359 23.5625,21.25 C23.4791662,21.25 23.3854172,21.2656248 23.28125,21.296875 C23.1770828,21.3281252 23.0625006,21.3749997 22.9375,21.4375 C22.7708325,21.5416672 22.4583356,21.7187487 22,21.96875 C21.5416644,22.2187513 20.9479203,22.5416647 20.21875,22.9375 L19.1875,23.5625 L18.15625,22.875 C17.48958,22.4166644 16.7552123,21.8281286 15.953125,21.109375 C15.1510377,20.3906214 14.2708381,19.5520881 13.3125,18.59375 C12.3749953,17.6354119 11.5520869,16.7552123 10.84375,15.953125 C10.1354131,15.1510377 9.55208562,14.41667 9.09375,13.75 L8.34375,12.78125 L8.96875,11.6875 C9.36458531,10.9583297 9.68749875,10.3697939 9.9375,9.921875 C10.1875013,9.47395609 10.3645828,9.15625094 10.46875,8.96875 C10.5312503,8.84374938 10.5781248,8.72916719 10.609375,8.625 C10.6406252,8.52083281 10.65625,8.42708375 10.65625,8.34375 C9.92707969,7.19791094 9.23437828,6.125005 8.578125,5.125 C7.92187172,4.124995 7.29166969,3.18750437 6.6875,2.3125 L6.625,2.3125 C6.54166625,2.3125 6.46354203,2.32291656 6.390625,2.34375 C6.31770797,2.36458344 6.25000031,2.39583312 6.1875,2.4375 Z" id="Phone---simple-line-icons"></path>
            </g>
        </g>
    </g>
</svg>